<svg width="151" height="180" viewBox="0 0 151 180" fill="none" xmlns="http://www.w3.org/2000/svg">
<g id="Group 8">
<path id="Vector 12" d="M33.2214 17.3189C34.542 10.1033 38.7848 3.48905 40.9246 1.57583C57.6604 -1.39443 111.032 1.22945 111.537 1.41184C116.232 6.79071 118.139 20.2707 118.506 25.1904C118.873 29.7274 125.109 45.0331 133.912 58.8083C146.568 75.6992 149.563 90.4036 150.419 96.1979C152.938 113.253 146.604 125.093 140.882 135.064C122.174 161.138 98.3313 170.977 70.6367 170.813C42.9421 170.649 17.6318 151.463 8.09454 135.064C0.464765 121.944 -0.342231 103.687 0.207993 96.1979C0.513673 91.3876 2.95911 77.1752 16.1645 58.8083C32.6712 35.8497 31.5708 26.3383 33.2214 17.3189Z" fill="url(#paint0_radial_392_980)"/>
<path id="Vector 22" d="M3.75808 109.713C2.51737 100.395 4.5115 93.2335 6.1919 89.6578C6.34186 89.3387 6.72585 89.49 6.6482 89.834C4.72146 98.3679 3.75808 106.337 3.75808 109.713Z" fill="url(#paint1_linear_392_980)"/>
<path id="Vector 21" d="M5.75782 76.0952C3.4102 80.1621 2.3342 86.2079 1.90625 88.2304L3.0067 88.8864C4.10715 83.3107 11.4435 70.5195 12.7273 67.7317C13.7544 65.5014 16.4566 59.8055 17.6793 57.2363L16.7623 57.8923C15.1116 59.0402 8.69235 71.0115 5.75782 76.0952Z" fill="url(#paint2_radial_392_980)"/>
<path id="Vector 18" d="M113.913 160.19C86.2364 175.503 57.2293 170.152 46.1854 165.726L50.9014 153.454C50.9366 152.078 50.987 148.8 50.9068 146.698C50.8065 144.071 51.0886 136.468 54.2097 136.362C57.3308 136.257 58.5556 135.656 59.4507 135.414C63.0593 134.706 65.6577 136.579 66.5057 137.604L63.6087 141.48C63.8209 143.438 64.0296 147.407 63.1675 147.614C62.3054 147.82 59.6202 144.351 58.3854 142.591C57.6317 144.139 59.9876 148.878 62.2079 150.662C71.8367 157.902 84.3622 156.158 92.6121 150.666C100.862 145.174 98.6414 138.281 97.8758 138.018C97.1102 137.755 96.3977 137.981 96.5038 138.961C96.4238 140.945 93.9111 144.512 92.6648 146.048C92.7177 144.835 92.8435 141.914 92.9234 139.93C93.0033 137.946 89.7333 135.428 88.0882 134.417C89.8548 133.715 93.7673 132.41 95.2843 132.805C96.8013 133.201 100.419 132.581 102.039 132.221C106.362 138.107 105.906 147.622 108.065 152.129C109.731 155.609 112.741 156.172 113.913 160.19Z" fill="url(#paint3_linear_392_980)"/>
<g id="Vector 19" filter="url(#filter0_f_392_980)">
<path d="M109.563 157.488C110.141 158.051 110.623 158.559 111.008 159.164C86.1874 172.097 60.5834 168.381 48.9607 164.435L51.7741 157.114C61.4572 164.498 82.3442 171.452 107.361 155.19C107.998 155.989 108.659 156.622 109.219 157.157C109.339 157.272 109.454 157.382 109.563 157.488Z" stroke="url(#paint4_linear_392_980)" stroke-width="4.39809"/>
</g>
<g id="Vector 20" filter="url(#filter1_f_392_980)">
<mask id="path-6-inside-1_392_980" fill="white">
<path d="M113.825 160.167C86.1483 175.48 57.1412 170.129 46.0973 165.703L50.8133 153.431C58.4644 160.877 80.6086 171.037 107.977 152.106C109.643 155.586 112.653 156.149 113.825 160.167Z"/>
</mask>
<path d="M46.0973 165.703L-5.11382 145.275L-24.5187 195.772L26.5781 216.249L46.0973 165.703ZM113.825 160.167L141.194 207.982L178.475 187.355L166.4 145.971L113.825 160.167ZM107.977 152.106L157.325 129.476L129.057 70.4518L76.0913 107.091L107.977 152.106ZM50.8133 153.431L88.6733 114.814L28.9342 56.6722L-0.397796 133.003L50.8133 153.431ZM26.5781 216.249C48.5059 225.036 95.5311 233.248 141.194 207.982L86.4552 112.351C82.006 114.813 77.1909 115.78 72.4622 115.789C70.1002 115.793 68.0354 115.551 66.5095 115.264C64.8159 114.946 64.5026 114.711 65.6164 115.157L26.5781 216.249ZM166.4 145.971C164.32 138.841 161.147 132.516 157.289 127.033C153.728 121.973 150.143 118.484 148.954 117.326C145.518 113.98 152.942 120.323 157.325 129.476L58.6277 174.735C60.1411 177.895 61.8327 180.77 63.616 183.373C65.387 185.958 67.1319 188.105 68.6502 189.823C70.13 191.497 71.4291 192.799 72.1918 193.548C72.5684 193.918 72.9004 194.238 73.0511 194.383C73.264 194.587 73.2384 194.563 73.2181 194.543C73.1482 194.475 72.4584 193.807 71.5653 192.82C70.6236 191.78 69.3612 190.286 68.0128 188.37C66.6455 186.427 65.3043 184.213 64.0993 181.735C62.8964 179.261 61.9558 176.783 61.2493 174.362L166.4 145.971ZM-0.397796 133.003L-5.11382 145.275L97.3084 186.131L102.024 173.859L-0.397796 133.003ZM12.9533 192.047C38.2769 216.694 89.5821 231.901 139.862 197.12L76.0913 107.091C73.8906 108.614 73.0063 108.73 73.5179 108.595C74.0568 108.453 75.2715 108.264 76.9532 108.451C78.5334 108.627 80.1943 109.096 81.8908 109.904C83.3654 110.605 85.7718 111.99 88.6733 114.814L12.9533 192.047Z" fill="url(#paint5_linear_392_980)" mask="url(#path-6-inside-1_392_980)"/>
</g>
<path id="Vector 16" d="M57.4384 168.913C-0.66172 155.63 -3.5142 109.002 1.86577 88.0664C7.00119 91.1822 11.5864 98.0698 12.6868 101.186C13.7873 104.301 25.7088 122.34 28.4599 125.456C30.6608 127.949 37.5692 139.177 40.7483 144.479C44.5387 148.633 52.413 157.762 53.5868 161.042C54.7493 164.29 56.6072 167.484 57.415 168.873L57.4384 168.913Z" fill="url(#paint6_linear_392_980)"/>
<path id="Vector 14" d="M33.085 15.0922C33.9654 11.2876 38.2204 5.63542 40.2379 3.2849C42.4388 1.31703 39.1375 5.7447 38.4038 7.54864C33.6352 16.8961 34.0021 18.536 33.4518 24.4396C32.9016 30.3432 30.1505 37.5588 29.2334 38.7067C28.4998 39.6251 28.3164 39.1987 28.3164 38.8707C29.4169 35.4269 31.2687 28.5842 31.6178 26.2435C31.9846 23.7836 32.5959 17.6067 33.085 15.0922Z" fill="url(#paint7_linear_392_980)"/>
<path id="Vector 15" d="M35.2907 31.7298C33.9702 31.3363 33.2733 26.7555 33.0898 24.5143C33.8235 17.2987 35.6576 12.379 36.2078 9.5912C36.648 7.36093 38.7144 7.24067 39.6925 7.45933C40.8541 8.06062 43.3974 9.39441 44.2777 9.91918C45.1581 10.4439 44.8891 12.3244 44.6445 13.199C44.2166 15.2215 43.324 20.3161 43.1773 24.5143C42.9939 29.7619 36.9414 32.2218 35.2907 31.7298Z" fill="url(#paint8_linear_392_980)"/>
<path id="Vector 13" d="M111.402 10.1706C111.402 8.07149 111.035 4.37625 110.852 2.79102C120.389 9.67859 113.603 25.5856 127.175 46.0843C131.943 54.1198 142.021 67.239 148.634 86.4258C156.41 108.991 142.826 133.327 134.878 142.674L131.026 143.986L131.577 141.362C138.321 136.737 145.27 128.166 146.8 117.42C148.218 107.453 144.51 93.8054 140.564 88.0657C126.808 68.059 115.987 39.5247 113.236 31.6532C110.485 23.7817 111.402 12.7944 111.402 10.1706Z" fill="url(#paint9_linear_392_980)"/>
<path id="Vector 17" d="M111.402 10.1706C111.402 8.07149 111.035 4.37625 110.852 2.79102C120.389 9.67859 113.603 25.5856 127.175 46.0843C131.943 54.1198 142.021 67.239 148.634 86.4258C156.41 108.991 142.826 133.327 134.878 142.674L131.026 143.986L131.577 141.362C138.321 136.737 145.27 128.166 146.8 117.42C148.218 107.453 144.51 93.8054 140.564 88.0657C126.808 68.059 115.987 39.5247 113.236 31.6532C110.485 23.7817 111.402 12.7944 111.402 10.1706Z" fill="url(#paint10_linear_392_980)"/>
</g>
<defs>
<filter id="filter0_f_392_980" x="43.5845" y="149.592" width="72.753" height="23.2588" filterUnits="userSpaceOnUse" color-interpolation-filters="sRGB">
<feFlood flood-opacity="0" result="BackgroundImageFix"/>
<feBlend mode="normal" in="SourceGraphic" in2="BackgroundImageFix" result="shape"/>
<feGaussianBlur stdDeviation="1.2566" result="effect1_foregroundBlur_392_980"/>
</filter>
<filter id="filter1_f_392_980" x="37.3015" y="143.309" width="85.3189" height="35.8248" filterUnits="userSpaceOnUse" color-interpolation-filters="sRGB">
<feFlood flood-opacity="0" result="BackgroundImageFix"/>
<feBlend mode="normal" in="SourceGraphic" in2="BackgroundImageFix" result="shape"/>
<feGaussianBlur stdDeviation="4.39809" result="effect1_foregroundBlur_392_980"/>
</filter>
<radialGradient id="paint0_radial_392_980" cx="0" cy="0" r="1" gradientUnits="userSpaceOnUse" gradientTransform="translate(75.6344 116.678) rotate(-90) scale(137.26 122.862)">
<stop stop-opacity="0.06"/>
<stop offset="1" stop-opacity="0"/>
</radialGradient>
<linearGradient id="paint1_linear_392_980" x1="6.67244" y1="83.1467" x2="9.91029" y2="109.483" gradientUnits="userSpaceOnUse">
<stop stop-color="white"/>
<stop offset="1" stop-color="white" stop-opacity="0"/>
</linearGradient>
<radialGradient id="paint2_radial_392_980" cx="0" cy="0" r="1" gradientUnits="userSpaceOnUse" gradientTransform="translate(9.79279 73.0613) rotate(90) scale(15.825 7.88654)">
<stop stop-color="white"/>
<stop offset="1" stop-color="white" stop-opacity="0"/>
</radialGradient>
<linearGradient id="paint3_linear_392_980" x1="94.3449" y1="195.972" x2="81.9288" y2="127.863" gradientUnits="userSpaceOnUse">
<stop stop-color="white"/>
<stop offset="0.598072" stop-color="white" stop-opacity="0.22"/>
<stop offset="0.966228" stop-color="white" stop-opacity="0"/>
</linearGradient>
<linearGradient id="paint4_linear_392_980" x1="81.6892" y1="171.702" x2="80.5056" y2="165.58" gradientUnits="userSpaceOnUse">
<stop offset="0.312643" stop-color="white"/>
<stop offset="1" stop-color="white" stop-opacity="0"/>
</linearGradient>
<linearGradient id="paint5_linear_392_980" x1="79.8551" y1="170.226" x2="79.121" y2="160.537" gradientUnits="userSpaceOnUse">
<stop stop-color="white"/>
<stop offset="1" stop-color="white" stop-opacity="0"/>
</linearGradient>
<linearGradient id="paint6_linear_392_980" x1="2.82303" y1="123.816" x2="37.1911" y2="101.797" gradientUnits="userSpaceOnUse">
<stop stop-color="white"/>
<stop offset="1" stop-opacity="0"/>
</linearGradient>
<linearGradient id="paint7_linear_392_980" x1="33.2684" y1="20.9958" x2="38.4945" y2="22.6082" gradientUnits="userSpaceOnUse">
<stop stop-color="#D9D9D9"/>
<stop offset="1" stop-color="#D9D9D9" stop-opacity="0"/>
</linearGradient>
<linearGradient id="paint8_linear_392_980" x1="33.6401" y1="19.4306" x2="46.3292" y2="22.5798" gradientUnits="userSpaceOnUse">
<stop offset="0.175597" stop-color="#D9D9D9"/>
<stop offset="1" stop-color="#D9D9D9" stop-opacity="0"/>
</linearGradient>
<linearGradient id="paint9_linear_392_980" x1="136.345" y1="53.1359" x2="115.762" y2="66.0968" gradientUnits="userSpaceOnUse">
<stop stop-color="white"/>
<stop offset="0.44343" stop-color="white" stop-opacity="0"/>
<stop offset="0.737687" stop-color="white" stop-opacity="0"/>
</linearGradient>
<linearGradient id="paint10_linear_392_980" x1="132.494" y1="54.4478" x2="113.102" y2="59.3124" gradientUnits="userSpaceOnUse">
<stop stop-color="white"/>
<stop offset="1" stop-color="white" stop-opacity="0"/>
</linearGradient>
</defs>
</svg>
