<svg width="271" height="312" viewBox="-2 65 281 312" fill="none" xmlns="http://www.w3.org/2000/svg">
  <g filter="url(#glowFilter)">
    <path d="M93.3199 79.0548C94.6471 70.9433 99.2802 64.6138 101.431 62.463C126.686 58.0385 170.743 63.7535 170.928 63.7535C175.647 69.8003 177.564 82.3732 177.933 87.9037C178.301 93.0042 184.569 110.21 193.417 125.696C206.137 144.684 209.516 161.215 210.377 167.729C212.909 186.901 207.28 200.212 201.528 211.42C182.725 240.732 158.761 251.794 130.926 251.609C103.09 251.425 77.6508 229.856 68.0651 211.42C60.3965 196.672 59.5854 176.147 60.1384 167.729C60.4456 162.321 64.3782 146.344 77.6508 125.696C94.2416 99.8867 91.6608 89.1942 93.3199 79.0548Z" fill="white"/>
  </g>
  <path d="M93.3542 78.018C94.6803 70.3667 99.3095 64.3964 101.458 62.3677C126.692 58.1943 170.712 63.5849 170.896 63.5849C175.611 69.2886 177.527 81.1481 177.895 86.3648C178.264 91.1758 184.526 107.406 193.367 122.013C206.076 139.924 209.453 155.516 210.312 161.66C212.842 179.745 207.218 192.3 201.471 202.873C182.684 230.521 158.74 240.955 130.928 240.781C103.116 240.607 77.6984 220.262 68.1207 202.873C60.4586 188.961 59.6482 169.601 60.2008 161.66C60.5077 156.559 64.437 141.489 77.6984 122.013C94.2751 97.6678 91.6965 87.5821 93.3542 78.018Z" fill="white"/>
  
  <defs>
    <!-- 불빛 효과를 위한 Gaussian Blur 필터 정의 -->
    <filter id="glowFilter" x="-50%" y="-50%" width="200%" height="200%">
      <feGaussianBlur in="SourceGraphic" stdDeviation="0" result="glow">
        <animate attributeName="stdDeviation" from="0" to="29.9213" dur="1s" fill="freeze"/>
      </feGaussianBlur>
      <feMerge>
        <feMergeNode in="glow"/>
        <feMergeNode in="SourceGraphic"/>
      </feMerge>
    </filter>
  </defs>
</svg>
