<svg xmlns="http://www.w3.org/2000/svg" width="261" height="330" viewBox="0 0 261 330" fill="none">
  <path d="M57.5958 31.6918C59.8857 17.697 67.8791 6.77687 71.5896 3.06614C115.161 -4.56736 191.174 5.29258 191.492 5.29258C199.634 15.725 202.941 37.4169 203.577 46.9588C204.213 55.7585 215.027 85.4443 230.293 112.162C252.238 144.922 258.069 173.442 259.553 184.68C263.921 217.758 254.21 240.722 244.287 260.061C211.846 310.633 170.501 329.716 122.476 329.398C74.452 329.08 30.5622 291.867 14.0239 260.061C0.793383 234.616 -0.606004 199.205 0.348123 184.68C0.878194 175.35 7.6631 147.785 30.5622 112.162C59.186 67.6328 54.7334 49.1852 57.5958 31.6918Z" fill="white"/>
</svg>