<svg width="40" height="37" viewBox="0 0 40 37" fill="none" xmlns="http://www.w3.org/2000/svg">
<g clipPath="url(#clip0_496_761)">
<g filter="url(#filter0_d_496_761)">
<circle cx="14.5976" cy="14.5976" r="13.5976" transform="matrix(1 0 0 -1 5 32.1953)" stroke="white" strokeWidth="2" strokeDasharray="6 6" shapeRendering="crispEdges"/>
</g>
<path fillRule="evenodd" clipRule="evenodd" d="M39.3346 8.99935C39.3346 13.6018 35.6038 17.3327 31.0013 17.3327C26.3988 17.3327 22.668 13.6018 22.668 8.99935C22.668 4.39685 26.3988 0.666016 31.0013 0.666016C35.6038 0.666016 39.3346 4.39685 39.3346 8.99935ZM31.0013 4.83268C31.2223 4.83268 31.4343 4.92048 31.5906 5.07676C31.7468 5.23304 31.8346 5.445 31.8346 5.66602V8.16602H34.3346C34.5556 8.16602 34.7676 8.25381 34.9239 8.41009C35.0802 8.56637 35.168 8.77834 35.168 8.99935C35.168 9.22036 35.0802 9.43232 34.9239 9.5886C34.7676 9.74489 34.5556 9.83268 34.3346 9.83268H31.8346V12.3327C31.8346 12.5537 31.7468 12.7657 31.5906 12.9219C31.4343 13.0782 31.2223 13.166 31.0013 13.166C30.7803 13.166 30.5683 13.0782 30.412 12.9219C30.2558 12.7657 30.168 12.5537 30.168 12.3327V9.83268H27.668C27.447 9.83268 27.235 9.74489 27.0787 9.5886C26.9224 9.43232 26.8346 9.22036 26.8346 8.99935C26.8346 8.77834 26.9224 8.56637 27.0787 8.41009C27.235 8.25381 27.447 8.16602 27.668 8.16602H30.168V5.66602C30.168 5.445 30.2558 5.23304 30.412 5.07676C30.5683 4.92048 30.7803 4.83268 31.0013 4.83268Z" fill="white"/>
</g>
<defs>
<filter id="filter0_d_496_761" x="-8.90244" y="-8.12195" width="51.4392" height="51.4392" filterUnits="userSpaceOnUse" colorInterpolationFilters="sRGB">
<feFlood floodOpacity="0" result="BackgroundImageFix"/>
<feColorMatrix in="SourceAlpha" type="matrix" values="0 0 0 0 0 0 0 0 0 0 0 0 0 0 0 0 0 0 127 0" result="hardAlpha"/>
<feOffset dx="-2.78049"/>
<feGaussianBlur stdDeviation="5.56098"/>
<feComposite in2="hardAlpha" operator="out"/>
<feColorMatrix type="matrix" values="0 0 0 0 0 0 0 0 0 0 0 0 0 0 0 0 0 0 0.25 0"/>
<feBlend mode="normal" in2="BackgroundImageFix" result="effect1_dropShadow_496_761"/>
<feBlend mode="normal" in="SourceGraphic" in2="effect1_dropShadow_496_761" result="shape"/>
</filter>
<clipPath id="clip0_496_761">
<rect width="40" height="37" fill="white"/>
</clipPath>
</defs>
</svg>
